<?xml version="1.0" encoding="UTF-8" standalone="no"?>
<!-- Created with Inkscape (http://www.inkscape.org/) -->

<svg
   width="210mm"
   height="297mm"
   viewBox="0 0 210 297"
   version="1.1"
   id="svg5"
   xmlns="http://www.w3.org/2000/svg"
   xmlns:svg="http://www.w3.org/2000/svg">
  <defs
     id="defs2" />
  <g
     id="layer1">
    <g
       id="g22683"
       transform="translate(-0.52916663,-1.0583333)" />
    <g
       id="g23081">
      <circle
         style="fill:#f2f2f2;stroke:#f2f2f2;stroke-width:0.335659;stroke-linejoin:bevel"
         id="path31"
         cx="96.299278"
         cy="75.253998"
         r="4.4105906"
         transform="translate(-0.52916664,-1.0583333)" />
      <text
         xml:space="preserve"
         style="font-style:normal;font-variant:normal;font-weight:normal;font-stretch:normal;font-size:5.4983px;line-height:1.25;font-family:eurofurence;-inkscape-font-specification:'eurofurence, Normal';font-variant-ligatures:normal;font-variant-caps:normal;font-variant-numeric:normal;font-variant-east-asian:normal;fill:#1a1a1a;fill-opacity:1;stroke:none;stroke-width:0.137458"
         x="93.858269"
         y="77.057121"
         id="text4882"
         transform="translate(-0.52916664,-1.0583333)"><tspan
           id="tspan4880"
           style="font-style:normal;font-variant:normal;font-weight:normal;font-stretch:normal;font-size:5.4983px;font-family:eurofurence;-inkscape-font-specification:'eurofurence, Normal';font-variant-ligatures:normal;font-variant-caps:normal;font-variant-numeric:normal;font-variant-east-asian:normal;fill:#1a1a1a;stroke-width:0.137458"
           x="93.858269"
           y="77.057121">€</tspan></text>
      <g
         id="g1309"
         transform="matrix(0.20612888,-0.11579175,-0.11579175,-0.20612888,-0.33254217,144.6497)">
        <path
           d="m 480.933,62.356 c 0.587,2.037 1.579,4.909 3.009,7.79 0.792,1.593 1.742,3.224 2.82,4.829 1.182,1.757 2.541,3.511 4.029,5.149 1.655,1.819 3.471,3.489 5.351,5.025 2.113,1.725 4.296,3.269 6.366,4.61 2.305,1.495 4.407,2.698 5.995,3.556 1.704,0.921 2.719,1.394 2.719,1.394 -0.103,0.046 -0.206,0.091 -0.308,0.136 0.105,0.052 0.208,0.103 0.313,0.159 0.145,-0.066 0.294,-0.13 0.442,-0.197 -0.104,-0.191 -0.206,-0.378 -0.308,-0.567 -0.105,-0.047 -0.21,-0.1 -0.312,-0.15 0.07,0.131 0.141,0.263 0.213,0.394 0,0 -1.016,-0.464 -2.72,-1.373 -1.588,-0.847 -3.69,-2.035 -5.998,-3.511 -2.072,-1.327 -4.258,-2.855 -6.373,-4.565 -1.881,-1.521 -3.698,-3.18 -5.356,-4.988 -1.491,-1.627 -2.851,-3.371 -4.036,-5.121 -1.08,-1.597 -2.031,-3.221 -2.824,-4.809 -1.434,-2.871 -2.428,-5.737 -3.017,-7.768 -10e-4,0.004 -0.004,0.005 -0.005,0.007"
           style="fill:#deddde;fill-opacity:1;fill-rule:nonzero;stroke:none"
           id="path1340" />
        <path
           d="m 481.021,62.207 c 0.641,2.032 1.756,4.983 3.401,7.885 0.92,1.623 2.035,3.273 3.318,4.874 1.425,1.779 3.084,3.533 4.925,5.129 2.086,1.803 4.4,3.395 6.838,4.819 2.8,1.634 5.747,3.038 8.6,4.231 3.253,1.36 6.279,2.402 8.606,3.134 2.542,0.8 4.071,1.171 4.071,1.171 -0.248,0.186 -0.498,0.366 -0.748,0.542 0.283,0.084 0.567,0.164 0.855,0.248 0.363,-0.258 0.723,-0.527 1.086,-0.802 -0.334,-0.452 -0.668,-0.897 -0.995,-1.337 -0.286,-0.069 -0.567,-0.134 -0.847,-0.201 0.225,0.304 0.45,0.612 0.677,0.922 0,0 -1.526,-0.346 -4.063,-1.104 -2.323,-0.695 -5.343,-1.689 -8.594,-2.997 -2.85,-1.148 -5.798,-2.504 -8.6,-4.096 -2.439,-1.387 -4.755,-2.944 -6.844,-4.718 -1.845,-1.568 -3.507,-3.3 -4.936,-5.058 -1.285,-1.583 -2.404,-3.218 -3.328,-4.828 -1.648,-2.878 -2.767,-5.812 -3.413,-7.833 -0.003,0.006 -0.006,0.013 -0.009,0.019"
           style="fill:#8d198f;fill-opacity:1;fill-rule:nonzero;stroke:none"
           id="path1342" />
        <path
           d="m 481.095,62.028 c 0.691,2.007 1.931,5.006 3.792,7.871 1.053,1.622 2.346,3.247 3.847,4.791 1.692,1.739 3.688,3.414 5.928,4.863 2.586,1.669 5.489,3.024 8.596,4.145 1.75,0.633 3.562,1.189 5.406,1.682 2.001,0.535 4.03,0.991 6.039,1.384 2.175,0.424 4.307,0.767 6.323,1.046 2.164,0.3 4.163,0.518 5.898,0.681 3.771,0.351 6.064,0.405 6.064,0.405 -0.433,0.484 -0.87,0.957 -1.309,1.415 0.58,0.049 1.166,0.091 1.763,0.137 0.647,-0.683 1.291,-1.389 1.921,-2.126 -0.824,-0.763 -1.634,-1.507 -2.429,-2.231 -0.574,0.01 -1.142,0.011 -1.701,0.011 0.528,0.498 1.064,1.003 1.609,1.517 0,0 -2.269,0.004 -6.005,-0.253 -1.721,-0.117 -3.703,-0.287 -5.851,-0.533 -2.003,-0.229 -4.122,-0.52 -6.284,-0.889 -2,-0.341 -4.02,-0.75 -6.014,-1.235 -1.836,-0.448 -3.643,-0.961 -5.389,-1.551 -3.101,-1.048 -6.001,-2.335 -8.589,-3.944 -2.241,-1.398 -4.24,-3.028 -5.936,-4.73 -1.503,-1.509 -2.8,-3.107 -3.859,-4.705 -1.867,-2.825 -3.113,-5.795 -3.81,-7.785 -0.004,0.012 -0.007,0.023 -0.01,0.034"
           style="fill:#0b8ed8;fill-opacity:1;fill-rule:nonzero;stroke:none"
           id="path1344" />
        <path
           d="m 481.149,61.823 c 0.74,1.965 2.103,4.979 4.181,7.75 1.191,1.586 2.669,3.139 4.399,4.56 1.979,1.622 4.341,3.116 7.019,4.284 1.51,0.657 3.111,1.205 4.798,1.658 1.842,0.496 3.786,0.88 5.811,1.169 2.224,0.319 4.545,0.522 6.927,0.632 2.62,0.122 5.304,0.131 7.988,0.058 2.946,-0.081 5.866,-0.262 8.657,-0.5 3.035,-0.257 5.867,-0.579 8.35,-0.904 5.492,-0.717 8.865,-1.39 8.865,-1.39 -0.606,1.026 -1.232,2.025 -1.864,3.003 1.056,-0.134 2.131,-0.281 3.229,-0.438 0.952,-1.472 1.855,-3.003 2.728,-4.583 -1.798,-0.989 -3.533,-1.934 -5.207,-2.833 -1,0.264 -1.979,0.519 -2.944,0.758 1.091,0.618 2.197,1.264 3.341,1.921 0,0 -3.282,0.774 -8.644,1.664 -2.428,0.402 -5.201,0.812 -8.179,1.168 -2.74,0.327 -5.611,0.6 -8.511,0.778 -2.649,0.16 -5.298,0.239 -7.888,0.203 -2.358,-0.033 -4.657,-0.161 -6.864,-0.406 -2.011,-0.225 -3.944,-0.546 -5.776,-0.981 -1.679,-0.401 -3.276,-0.897 -4.781,-1.506 -2.674,-1.084 -5.035,-2.507 -7.014,-4.07 -1.732,-1.368 -3.214,-2.877 -4.41,-4.425 -2.086,-2.708 -3.457,-5.681 -4.2,-7.62 -0.003,0.018 -0.007,0.035 -0.011,0.05"
           style="fill:#7b7979;fill-opacity:1;fill-rule:nonzero;stroke:none"
           id="path1346" />
        <path
           d="m 481.187,61.6 c 0.779,1.904 2.263,4.903 4.557,7.516 1.33,1.512 2.997,2.938 4.961,4.163 2.277,1.42 5.028,2.613 8.17,3.338 1.799,0.413 3.731,0.681 5.785,0.816 2.271,0.148 4.694,0.136 7.238,-0.023 2.832,-0.177 5.815,-0.536 8.887,-1.051 3.427,-0.575 6.945,-1.342 10.442,-2.261 3.921,-1.035 7.798,-2.201 11.504,-3.414 4.08,-1.335 7.867,-2.699 11.184,-3.957 3.572,-1.357 6.489,-2.555 8.552,-3.43 2.151,-0.913 3.289,-1.442 3.289,-1.442 -0.615,1.847 -1.277,3.666 -1.994,5.451 1.753,-0.611 3.551,-1.26 5.402,-1.936 1.036,-2.732 1.985,-5.529 2.78,-8.38 -3.541,-0.757 -6.884,-1.439 -10.033,-2.068 -1.518,0.821 -3.003,1.613 -4.463,2.365 1.99,0.476 4.067,0.971 6.215,1.509 0,0 -4.163,2.153 -11.225,5.184 -3.164,1.358 -6.788,2.836 -10.705,4.302 -3.567,1.336 -7.31,2.635 -11.109,3.808 -3.395,1.045 -6.82,1.944 -10.167,2.649 -3.005,0.634 -5.93,1.108 -8.714,1.396 -2.507,0.26 -4.896,0.369 -7.14,0.31 -2.032,-0.053 -3.948,-0.245 -5.733,-0.586 -3.122,-0.601 -5.863,-1.687 -8.136,-3.017 -1.963,-1.151 -3.63,-2.513 -4.963,-3.973 -2.299,-2.525 -3.792,-5.466 -4.577,-7.337 -0.002,0.023 -0.005,0.045 -0.007,0.068"
           style="fill:#bfdf14;fill-opacity:1;fill-rule:nonzero;stroke:none"
           id="path1348" />
        <path
           d="m 481.204,61.384 c 0.815,1.838 2.41,4.816 4.913,7.242 1.465,1.418 3.32,2.685 5.52,3.667 1.238,0.552 2.599,1.02 4.077,1.375 1.617,0.388 3.384,0.642 5.281,0.718 2.103,0.082 4.37,-0.047 6.789,-0.371 2.701,-0.363 5.597,-0.969 8.654,-1.796 3.44,-0.933 7.08,-2.144 10.846,-3.592 4.255,-1.637 8.64,-3.564 13.006,-5.701 4.975,-2.44 9.909,-5.064 14.649,-7.728 5.273,-2.963 10.179,-5.9 14.491,-8.578 4.683,-2.912 8.501,-5.419 11.204,-7.236 2.831,-1.905 4.312,-2.974 4.312,-2.974 -0.18,2.803 -0.524,5.619 -0.982,8.431 2.697,-1.547 5.498,-3.166 8.376,-4.881 0.577,-4.318 0.806,-8.605 0.74,-12.83 -6.323,0.575 -12.089,1.133 -17.356,1.673 -2.041,1.69 -4.009,3.32 -5.943,4.887 3.267,-0.193 6.723,-0.377 10.393,-0.561 0,0 -1.334,1.061 -3.892,2.967 -2.449,1.821 -5.921,4.346 -10.207,7.3 -3.962,2.73 -8.497,5.743 -13.399,8.811 -4.43,2.769 -9.065,5.524 -13.767,8.11 -4.141,2.278 -8.325,4.358 -12.402,6.155 -3.624,1.595 -7.141,2.955 -10.478,4.034 -2.971,0.96 -5.798,1.696 -8.441,2.181 -2.371,0.435 -4.601,0.669 -6.674,0.685 -3.575,0.025 -6.702,-0.624 -9.272,-1.654 -2.191,-0.879 -4.041,-2.061 -5.507,-3.41 -2.503,-2.311 -4.109,-5.211 -4.928,-7.009 -10e-4,0.028 -10e-4,0.057 -0.003,0.085"
           style="fill:#ec008c;fill-opacity:1;fill-rule:nonzero;stroke:none"
           id="path1350" />
        <path
           d="m 481.205,61.162 c 0.787,1.647 2.295,4.254 4.59,6.317 1.325,1.191 2.974,2.222 4.898,2.983 2.224,0.878 4.878,1.419 7.861,1.396 1.695,-0.014 3.499,-0.205 5.394,-0.553 2.083,-0.383 4.28,-0.958 6.558,-1.699 2.512,-0.816 5.117,-1.833 7.761,-3.008 2.915,-1.298 5.852,-2.779 8.716,-4.376 3.172,-1.772 6.245,-3.628 9.126,-5.467 3.123,-1.991 5.964,-3.92 8.407,-5.645 5.357,-3.78 8.409,-6.285 8.409,-6.285 -0.13,1.622 -0.318,3.243 -0.546,4.863 1.233,-0.837 2.493,-1.701 3.773,-2.598 0.294,-2.418 0.47,-4.837 0.548,-7.244 -2.781,0.006 -5.412,0.026 -7.903,0.063 -1.025,0.916 -2.031,1.809 -3.024,2.674 1.612,0.035 3.288,0.073 5.02,0.13 0,0 -2.855,2.517 -7.898,6.359 -2.309,1.757 -5.001,3.731 -7.971,5.782 -2.749,1.895 -5.688,3.824 -8.733,5.674 -2.755,1.676 -5.592,3.241 -8.417,4.626 -2.566,1.261 -5.102,2.364 -7.555,3.266 -2.228,0.821 -4.38,1.474 -6.427,1.934 -1.864,0.419 -3.642,0.677 -5.316,0.757 -2.949,0.136 -5.582,-0.302 -7.793,-1.094 -1.916,-0.687 -3.56,-1.655 -4.884,-2.792 -2.293,-1.975 -3.806,-4.524 -4.597,-6.135 10e-4,0.024 0.002,0.048 0.003,0.072"
           style="fill:#00adef;fill-opacity:1;fill-rule:nonzero;stroke:none"
           id="path1352" />
        <path
           d="m 481.193,60.96 c 0.754,1.471 2.167,3.757 4.258,5.526 1.194,1.005 2.653,1.858 4.332,2.464 1.91,0.69 4.149,1.075 6.617,0.988 2.863,-0.107 5.986,-0.863 9.256,-2.073 3.84,-1.422 7.831,-3.45 11.685,-5.704 4.468,-2.616 8.563,-5.426 11.705,-7.719 3.464,-2.528 5.488,-4.22 5.488,-4.22 -0.096,0.967 -0.216,1.932 -0.35,2.895 0.633,-0.473 1.274,-0.96 1.927,-1.453 0.177,-1.417 0.312,-2.838 0.413,-4.259 -1.378,-0.123 -2.711,-0.234 -3.999,-0.335 -0.562,0.513 -1.118,1.017 -1.667,1.511 0.858,0.09 1.735,0.185 2.631,0.29 0,0 -1.94,1.71 -5.27,4.282 -3.03,2.339 -6.99,5.219 -11.33,7.927 -3.755,2.34 -7.657,4.466 -11.425,5.99 -3.216,1.3 -6.296,2.147 -9.129,2.339 -2.446,0.163 -4.669,-0.155 -6.569,-0.786 -1.673,-0.555 -3.128,-1.361 -4.319,-2.331 -2.089,-1.704 -3.504,-3.944 -4.26,-5.39 10e-4,0.019 0.003,0.038 0.006,0.058"
           style="fill:#f68712;fill-opacity:1;fill-rule:nonzero;stroke:none"
           id="path1354" />
        <path
           d="m 481.167,60.758 c 0.72,1.306 2.033,3.294 3.929,4.799 1.066,0.845 2.351,1.547 3.81,2.029 1.637,0.541 3.522,0.816 5.566,0.698 2.317,-0.138 4.802,-0.79 7.354,-1.785 2.924,-1.14 5.895,-2.713 8.696,-4.416 3.165,-1.925 5.997,-3.944 8.125,-5.56 2.301,-1.745 3.63,-2.903 3.63,-2.903 -0.064,0.56 -0.136,1.117 -0.215,1.674 0.331,-0.265 0.667,-0.532 1.004,-0.804 0.106,-0.81 0.196,-1.623 0.277,-2.436 -0.698,-0.123 -1.383,-0.24 -2.055,-0.346 -0.308,0.282 -0.614,0.56 -0.916,0.834 0.454,0.084 0.916,0.171 1.385,0.26 0,0 -1.294,1.17 -3.538,2.941 -2.079,1.642 -4.851,3.701 -7.953,5.675 -2.753,1.751 -5.678,3.379 -8.563,4.576 -2.522,1.048 -4.982,1.752 -7.281,1.941 -2.03,0.164 -3.904,-0.071 -5.534,-0.574 -1.453,-0.45 -2.736,-1.121 -3.8,-1.941 -1.893,-1.462 -3.207,-3.417 -3.928,-4.706 0.002,0.015 0.005,0.03 0.007,0.044"
           style="fill:#9c9a9b;fill-opacity:1;fill-rule:nonzero;stroke:none"
           id="path1356" />
        <path
           d="m 481.129,60.558 c 0.681,1.152 1.894,2.864 3.6,4.136 1.979,1.474 4.798,2.398 8.007,2.163 1.88,-0.139 3.867,-0.685 5.874,-1.488 2.252,-0.901 4.5,-2.113 6.581,-3.401 2.301,-1.422 4.327,-2.891 5.826,-4.047 1.595,-1.232 2.511,-2.045 2.511,-2.045 -0.038,0.294 -0.078,0.588 -0.12,0.88 0.163,-0.135 0.328,-0.271 0.492,-0.408 0.059,-0.422 0.113,-0.845 0.163,-1.269 -0.334,-0.083 -0.665,-0.165 -0.992,-0.242 -0.157,0.142 -0.312,0.283 -0.468,0.421 0.225,0.056 0.453,0.115 0.681,0.174 0,0 -3.427,3.115 -8.226,6.17 -2.059,1.31 -4.287,2.55 -6.52,3.481 -1.992,0.829 -3.966,1.402 -5.836,1.569 -3.193,0.282 -6.005,-0.6 -7.981,-2.044 -1.703,-1.248 -2.918,-2.937 -3.599,-4.079 0.002,0.01 0.005,0.02 0.007,0.029"
           style="fill:#bfdf14;fill-opacity:1;fill-rule:nonzero;stroke:none"
           id="path1358" />
        <path
           d="m 481.078,60.362 c 0.64,1.006 1.752,2.467 3.276,3.536 1.74,1.217 4.143,1.946 6.811,1.727 1.526,-0.127 3.118,-0.569 4.705,-1.205 1.749,-0.7 3.47,-1.625 5.04,-2.591 3.566,-2.196 6.063,-4.409 6.063,-4.409 -0.018,0.117 -0.035,0.234 -0.052,0.351 0.062,-0.052 0.127,-0.104 0.189,-0.158 0.025,-0.168 0.048,-0.336 0.072,-0.503 -0.126,-0.04 -0.25,-0.079 -0.374,-0.116 -0.063,0.054 -0.124,0.108 -0.186,0.161 l 0.261,0.082 c 0,0 -2.481,2.224 -6.028,4.44 -1.561,0.974 -3.274,1.911 -5.016,2.622 -1.582,0.645 -3.169,1.098 -4.692,1.237 -2.662,0.237 -5.061,-0.473 -6.798,-1.677 -1.523,-1.058 -2.635,-2.509 -3.276,-3.51 0.002,0.005 0.003,0.009 0.005,0.013"
           style="fill:#deddde;fill-opacity:1;fill-rule:nonzero;stroke:none"
           id="path1360" />
      </g>
    </g>
  </g>
</svg>
